<svg xmlns="http://www.w3.org/2000/svg" viewBox="0 0 900 900" role="img" aria-label="Cartoon dusk city glow">
  <defs>
    <linearGradient id="dusk" x1="0" y1="0" x2="0" y2="1">
      <stop stop-color="#4060c8"/><stop offset="0.55" stop-color="#a868c8"/><stop offset="1" stop-color="#ff9868"/>
    </linearGradient>
    <linearGradient id="glow" x1="0" y1="1" x2="0" y2="0">
      <stop stop-color="#ffd080" stop-opacity="0.9"/><stop offset="1" stop-color="#ff6040" stop-opacity="0"/>
    </linearGradient>
  </defs>
  <rect width="900" height="900" fill="url(#dusk)"/>
  <ellipse cx="450" cy="780" rx="500" ry="200" fill="url(#glow)"/>
  <rect x="80" y="380" width="100" height="420" rx="8" fill="#303860"/>
  <rect x="220" y="320" width="85" height="480" rx="8" fill="#384878"/>
  <rect x="340" y="420" width="120" height="380" rx="8" fill="#283058"/>
  <rect x="500" y="360" width="95" height="440" rx="8" fill="#344070"/>
  <rect x="640" y="400" width="110" height="400" rx="8" fill="#2a3458"/>
  <rect x="780" y="450" width="90" height="350" rx="8" fill="#323c68"/>
  <rect x="110" y="420" width="18" height="22" fill="#ffe8a0"/><rect x="145" y="460" width="18" height="22" fill="#ffe8a0"/>
  <rect x="250" y="380" width="16" height="20" fill="#ffd0c0"/><rect x="285" y="520" width="16" height="20" fill="#a8e8ff"/>
  <rect x="380" y="480" width="20" height="24" fill="#ffb8d8"/><rect x="530" y="400" width="16" height="20" fill="#fff8a0"/>
  <path d="M0 620 Q450 540 900 600 V900 H0Z" fill="#204030"/>
  <path d="M0 680 Q300 620 600 680 T900 640 V900 H0Z" fill="#183028"/>
</svg>
